Coordinates
version=1
nRows=43
nColumns=12
inDegrees=yes

Units are S.I. units (second, meters, Newtons, ...)
Angles are in degrees

endheader
time	SC_y	SC_z	SC_x	AC_y	AC_z	AC_x	GH_y	GH_z	GH_yy	EL_x	PS_y
       0.0              -49.64          5.491          82.55          32.25         -10.49           11.7          71.87          84.74         -148.9          39.57          124.1
   0.01762              -49.63          5.494          82.54          32.25         -10.49           11.7          71.83          84.74         -148.8          39.58          124.1
   0.03524              -49.63          5.497          82.54          32.25         -10.49          11.71          71.79          84.73         -148.8          39.58          124.0
   0.05287              -49.62            5.5          82.54          32.26         -10.49          11.71          71.75          84.72         -148.8          39.59          124.0
   0.07049              -49.61          5.503          82.54          32.26         -10.49          11.71          71.71          84.71         -148.7          39.59          124.0
   0.08811              -49.61          5.507          82.54          32.27         -10.49          11.71          71.66           84.7         -148.7           39.6          124.0
    0.1057               -49.6           5.51          82.53          32.27          -10.5          11.71          71.61          84.69         -148.6           39.6          124.0
    0.1234              -49.59          5.514          82.53          32.28          -10.5          11.71          71.56          84.67         -148.6          39.61          124.0
     0.141              -49.59          5.519          82.53          32.28          -10.5          11.71           71.5          84.66         -148.5          39.62          124.0
    0.1586              -49.58          5.523          82.52          32.29          -10.5          11.71          71.44          84.65         -148.5          39.63          123.9
    0.1762              -49.57          5.528          82.52           32.3          -10.5          11.71          71.38          84.63         -148.4          39.64          123.9
    0.1938              -49.56          5.533          82.52           32.3         -10.51          11.71          71.31          84.61         -148.3          39.65          123.9
    0.2115              -49.55          5.539          82.51          32.31         -10.51          11.71          71.23           84.6         -148.3          39.66          123.9
    0.2291              -49.54          5.545          82.51          32.32         -10.51          11.72          71.15          84.58         -148.2          39.67          123.8
    0.2467              -49.53          5.552          82.51          32.33         -10.52          11.72          71.06          84.56         -148.1          39.68          123.8
    0.2643              -49.52          5.559           82.5          32.34         -10.52          11.72          70.96          84.53         -148.0          39.69          123.8
     0.282               -49.5          5.567           82.5          32.35         -10.52          11.72          70.86          84.51         -147.9          39.71          123.7
    0.2996              -49.49          5.575          82.49          32.36         -10.53          11.72          70.75          84.48         -147.8          39.72          123.7
    0.3172              -49.47          5.585          82.49          32.38         -10.53          11.73          70.62          84.45         -147.7          39.74          123.7
    0.3348              -49.45          5.595          82.48          32.39         -10.54          11.73          70.49          84.42         -147.6          39.76          123.6
    0.3524              -49.43          5.606          82.47          32.41         -10.54          11.73          70.34          84.39         -147.4          39.78          123.6
    0.3701              -49.41          5.619          82.46          32.42         -10.55          11.73          70.17          84.35         -147.3           39.8          123.5
    0.3877              -49.39          5.632          82.46          32.44         -10.55          11.74          69.99          84.31         -147.1          39.83          123.4
    0.4053              -49.36          5.647          82.45          32.46         -10.56          11.74          69.79          84.26         -146.9          39.85          123.4
    0.4229              -49.33          5.664          82.44          32.49         -10.57          11.74          69.57          84.21         -146.7          39.88          123.3
    0.4406               -49.3          5.683          82.42          32.51         -10.58          11.75          69.32          84.15         -146.5          39.92          123.2
    0.4582              -49.26          5.704          82.41          32.54         -10.58          11.75          69.04          84.09         -146.2          39.96          123.1
    0.4758              -49.22          5.728           82.4          32.58          -10.6          11.76          68.73          84.01         -145.9           40.0          123.0
    0.4934              -49.17          5.754          82.38          32.61         -10.61          11.77          68.37          83.93         -145.6          40.05          122.9
     0.511              -49.12          5.785          82.36          32.65         -10.62          11.77          67.97          83.84         -145.2           40.1          122.8
    0.5287              -49.06          5.819          82.34           32.7         -10.64          11.78          67.51          83.73         -144.8          40.17          122.6
    0.5463              -48.98          5.859          82.31          32.76         -10.66          11.79          66.98          83.61         -144.3          40.24          122.4
    0.5639               -48.9          5.905          82.28          32.82         -10.68           11.8          66.37          83.47         -143.8          40.32          122.2
    0.5815              -48.81          5.958          82.25           32.9          -10.7          11.81          65.67           83.3         -143.1          40.42          122.0
    0.5992               -48.7           6.02          82.21          32.98         -10.73          11.83          64.84          83.11         -142.3          40.53          121.7
    0.6168              -48.57          6.094          82.16          33.09         -10.76          11.85          63.86          82.88         -141.4          40.66          121.4
    0.6344              -48.41          6.181          82.11          33.21          -10.8          11.87           62.7          82.61         -140.3          40.82          121.0
     0.652              -48.23          6.286          82.04          33.35         -10.85          11.89          61.31          82.29         -139.0          41.01          120.5
    0.6696              -48.01          6.412          81.96          33.53         -10.91          11.92          59.63           81.9         -137.5          41.24          120.0
    0.6873              -47.73          6.567          81.86          33.75         -10.98          11.96          57.58          81.42         -135.6          41.52          119.3
    0.7049              -47.39          6.758          81.74          34.01         -11.07           12.0          55.04          80.83         -133.2          41.87          118.4
    0.7225              -46.97          6.996          81.59          34.34         -11.18          12.06          51.88          80.09         -130.3           42.3          117.4
    0.7401              -46.44          7.296           81.4          34.76         -11.31          12.13           47.9          79.16         -126.6          42.85          116.1
